<svg xmlns="http://www.w3.org/2000/svg" width="595" height="181" viewBox="0 0 595 181" fill="none"><path d="M79.2 140.3C82.1 129.9 85.7 118.7 90 106.7L112.9 43.3H147V175.8H122.7V108.6C122.7 98.8001 123.1 87.3001 123.9 74.3001H123.1C122 78.1001 120.6 82.3 119.1 87C117.6 91.7001 116 96.3001 114.3 100.9L86.8 175.8H71.2L43.8 101C42.1 96.5 40.6 91.8 39 87.1C37.5 82.4 36.2 78.2001 35 74.4001H34.1C34.9 86.6001 35.3 98.0001 35.3 108.6V175.9H11.1V43.3H45L67.9 106.4C71.7 116.9 75.3 128.2 78.7 140.3H79.2Z" fill="#1C9AD6"></path><path d="M246.8 140.3C249.7 129.9 253.3 118.7 257.6 106.7L280.5 43.3H314.6V175.8H290.3V108.6C290.3 98.8001 290.7 87.3001 291.5 74.3001H290.6C289.5 78.1001 288.1 82.3 286.6 87C285.1 91.7001 283.5 96.3001 281.8 100.9L254.4 175.8H238.8L211.4 101C209.7 96.5 208.2 91.8 206.6 87.1C205.1 82.4 203.8 78.2001 202.6 74.4001H201.7C202.5 86.6001 202.9 98.0001 202.9 108.6V175.9H178.7V43.3H212.6L235.5 106.4C239.3 116.9 242.9 128.2 246.3 140.3H246.8Z" fill="#1C9AD6"></path><path d="M394.9 100.4L430.2 43.3H457.2L407 122.4V175.8H382.7V122.4L332.5 43.3H359.4L394.7 100.4H394.9Z" fill="#1C9AD6"></path><path d="M475 175.9V43.3H499.3V103.6H499.7L549.7 43.3H579.8L524.5 109L584.3 175.9H553.2L499.6 116H499.2V175.8H475V175.9Z" fill="#1C9AD6"></path><path d="M163.3 43.8C174.014 43.8 182.7 35.1143 182.7 24.4C182.7 13.6857 174.014 5 163.3 5C152.586 5 143.9 13.6857 143.9 24.4C143.9 35.1143 152.586 43.8 163.3 43.8Z" fill="#1C9AD6"></path></svg>